<?xml version="1.0" encoding="utf-8"?>
<!-- Generator: Adobe Illustrator 26.3.1, SVG Export Plug-In . SVG Version: 6.00 Build 0)  -->
<svg version="1.1" id="Capa_1" xmlns="http://www.w3.org/2000/svg" xmlns:xlink="http://www.w3.org/1999/xlink" x="0px" y="0px"
	 viewBox="0 0 500 500" style="enable-background:new 0 0 500 500;" xml:space="preserve">
<style type="text/css">
	.st0{fill:#FFFFFF;}
</style>
<path class="st0" d="M140,40C84.9,40,40,84.9,40,140v220c0,55.1,44.9,100,100,100h220c55.1,0,100-44.9,100-100V140
	c0-55.1-44.9-100-100-100H140z M130,160h240c1.8,0,3.5,0.2,5.1,0.7l-98.3,98.2c-14.8,14.8-38.9,14.8-53.7,0l-98.2-98.2
	C126.5,160.2,128.2,160,130,160z M110.7,174.9l75.2,75.1l-75.2,75.1c-0.5-1.6-0.7-3.3-0.7-5.1V180
	C110,178.2,110.2,176.5,110.7,174.9z M389.3,174.9c0.5,1.6,0.7,3.3,0.7,5.1v140c0,1.8-0.2,3.5-0.7,5.1L314,250L389.3,174.9z
	 M200,264.1l8.9,9c11.3,11.3,26.2,16.9,41,16.9c14.9,0,29.7-5.6,41-16.9l9-9l75.2,75.2c-1.6,0.5-3.3,0.7-5.1,0.7H130
	c-1.8,0-3.5-0.2-5.1-0.7L200,264.1z"/>
</svg>
