<?xml version="1.0" encoding="utf-8"?>
<!-- Generator: Adobe Illustrator 26.3.1, SVG Export Plug-In . SVG Version: 6.00 Build 0)  -->
<svg version="1.1" id="Capa_1" xmlns="http://www.w3.org/2000/svg" xmlns:xlink="http://www.w3.org/1999/xlink" x="0px" y="0px"
	 viewBox="0 0 225 60.4" style="enable-background:new 0 0 225 60.4;" xml:space="preserve">
<style type="text/css">
	.st0{fill:#FFFFFF;}
	.st1{fill:#4AAEA1;}
	.st2{fill:#F29100;}
	.st3{fill:#C7BD6E;}
</style>
<g>
	<path class="st0" d="M81.2,34.5L81.2,34.5c0-5.5,4.4-10.1,10.3-10.1s10.3,4.4,10.3,9.9l0,0c0,5.5-4.4,9.9-10.3,9.9
		S81.2,39.9,81.2,34.5z M97.3,34.5L97.3,34.5c0-3.3-2.4-6-5.9-6s-5.7,2.7-5.7,6l0,0c0,3.3,2.4,6,5.9,6S97.3,37.7,97.3,34.5z"/>
	<path class="st0" d="M105,29.1h4.2v2.2c1.1-1.5,2.4-2.4,4.6-2.4c3.5,0,6.8,2.7,6.8,7.7l0,0c0,4.9-3.3,7.7-6.8,7.7
		c-2.2,0-3.7-1.1-4.6-2.2v6.2H105C105,48.4,105,29.1,105,29.1z M116.3,36.6L116.3,36.6c0-2.6-1.6-4-3.7-4s-3.5,1.6-3.5,4l0,0
		c0,2.4,1.6,4,3.5,4S116.3,39,116.3,36.6z"/>
	<path class="st0" d="M122.8,36.6L122.8,36.6c0-4.2,2.9-7.7,7.3-7.7c4.9,0,7.1,3.8,7.1,8.1c0,0.4,0,0.7,0,1.1H127
		c0.4,1.8,1.6,2.9,3.7,2.9c1.5,0,2.4-0.4,3.5-1.5l2.4,2.2c-1.5,1.6-3.3,2.7-6,2.7C126.1,44.3,122.8,41.2,122.8,36.6z M133.2,35.4
		c-0.2-1.8-1.3-3.1-3.1-3.1c-1.6,0-2.9,1.3-3.1,3.1H133.2z"/>
	<path class="st0" d="M140.4,29.1h4.2v2c0.9-1.3,2.2-2.4,4.4-2.4c3.1,0,4.9,2,4.9,5.5V44h-4.2v-8.2c0-2-0.9-2.9-2.6-2.9
		s-2.6,1.1-2.6,2.9V44h-4.2V29.1z"/>
	<path class="st0" d="M160.1,41.6l2.7-2.9c1.1,1.3,2.2,1.8,3.5,1.8c1.6,0,2.6-0.9,2.6-3.1V24.9h4.4v12.6c0,2.2-0.7,4-1.8,5.1
		c-1.1,1.1-2.9,1.8-4.9,1.8C163.4,44.3,161.6,43.1,160.1,41.6z"/>
	<path class="st0" d="M176.5,36.8L176.5,36.8c0-4.2,3.5-7.7,8.1-7.7s7.9,3.3,7.9,7.7l0,0c0,4.2-3.5,7.7-8.1,7.7
		C179.9,44.5,176.5,41,176.5,36.8z M188.4,36.8L188.4,36.8c0-2.2-1.6-4-3.8-4c-2.4,0-3.8,1.8-3.8,4l0,0c0,2.2,1.6,4,3.8,4
		C186.9,40.9,188.4,39,188.4,36.8z"/>
	<path class="st0" d="M199.5,42.1V44h-4.2V24h4.2v7.5c1.1-1.5,2.4-2.4,4.6-2.4c3.5,0,6.8,2.7,6.8,7.7l0,0c0,4.9-3.3,7.7-6.8,7.7
		C201.9,44.3,200.6,43.4,199.5,42.1z M206.7,36.8L206.7,36.8c0-2.6-1.6-4-3.7-4s-3.5,1.6-3.5,4l0,0c0,2.4,1.6,4,3.5,4
		S206.7,39.2,206.7,36.8z"/>
	<path class="st0" d="M212.9,42.1l1.8-2.7c1.6,1.1,3.3,1.8,4.6,1.8s1.8-0.4,1.8-1.1l0,0c0-0.9-1.5-1.3-3.1-1.6
		c-2-0.5-4.4-1.6-4.4-4.4l0,0c0-2.9,2.4-4.6,5.3-4.6c1.8,0,3.8,0.5,5.5,1.6l-1.6,2.9c-1.5-0.9-2.9-1.5-4-1.5s-1.5,0.4-1.5,1.1l0,0
		c0,0.9,1.5,1.3,2.9,1.8c2,0.7,4.4,1.6,4.4,4.4l0,0c0,3.3-2.4,4.8-5.7,4.8C217.1,44.3,214.8,43.8,212.9,42.1z"/>
</g>
<circle class="st1" cx="22.5" cy="22.2" r="22.2"/>
<path class="st2" d="M41.6,22.2v19.1c0,1.5-1.1,2.6-2.6,2.6s-2.6-1.1-2.6-2.6H22.5c0,10.6,8.6,19.1,19.1,19.1l0,0
	c10.6,0,19.1-8.6,19.1-19.1V22.2H41.6z"/>
<g>
	<path class="st3" d="M22.5,41.2c0,1.1,0.2,2,0.2,3.1c4,0,7.7-1.1,11-3.1H22.5z"/>
	<path class="st3" d="M41.6,33.5c2-3.3,3.1-7.1,3.1-11.4h-3.1V33.5z"/>
</g>
</svg>
