<?xml version="1.0" encoding="utf-8"?>
<!-- Generator: Adobe Illustrator 26.3.1, SVG Export Plug-In . SVG Version: 6.00 Build 0)  -->
<svg version="1.1" id="Capa_1" xmlns="http://www.w3.org/2000/svg" xmlns:xlink="http://www.w3.org/1999/xlink" x="0px" y="0px"
	 viewBox="0 0 85 35" style="enable-background:new 0 0 85 35;" xml:space="preserve">
<style type="text/css">
	.st0{fill:#43F082;}
	.st1{fill:#FFFFFF;}
	.st2{fill:#F29100;}
</style>
<circle class="st0" cx="12.7" cy="13.1" r="12.1"/>
<g>
	<path class="st1" d="M44.7,11.8L44.7,11.8c0-3,2.4-5.5,5.6-5.5s5.6,2.4,5.6,5.4v0c0,3-2.4,5.4-5.6,5.4S44.7,14.8,44.7,11.8z
		 M53.5,11.8L53.5,11.8c0-1.8-1.3-3.3-3.2-3.3s-3.1,1.5-3.1,3.3v0c0,1.8,1.3,3.3,3.2,3.3S53.5,13.6,53.5,11.8z"/>
	<path class="st1" d="M57.7,8.9H60v1.2c0.6-0.8,1.3-1.3,2.5-1.3c1.9,0,3.7,1.5,3.7,4.2v0c0,2.7-1.8,4.2-3.7,4.2
		c-1.2,0-2-0.6-2.5-1.2v3.4h-2.3V8.9z M63.9,13L63.9,13c0-1.4-0.9-2.2-2-2.2s-1.9,0.9-1.9,2.2v0c0,1.3,0.9,2.2,1.9,2.2
		S63.9,14.3,63.9,13z"/>
	<path class="st1" d="M67.4,13L67.4,13c0-2.3,1.6-4.2,4-4.2c2.7,0,3.9,2.1,3.9,4.4c0,0.2,0,0.4,0,0.6h-5.6c0.2,1,0.9,1.6,2,1.6
		c0.8,0,1.3-0.2,1.9-0.8l1.3,1.2c-0.8,0.9-1.8,1.5-3.3,1.5C69.2,17.2,67.4,15.5,67.4,13z M73.1,12.3c-0.1-1-0.7-1.7-1.7-1.7
		c-0.9,0-1.6,0.7-1.7,1.7H73.1z"/>
	<path class="st1" d="M77,8.9h2.3v1.1c0.5-0.7,1.2-1.3,2.4-1.3c1.7,0,2.7,1.1,2.7,3V17h-2.3v-4.5c0-1.1-0.5-1.6-1.4-1.6
		c-0.9,0-1.4,0.6-1.4,1.6V17H77V8.9z"/>
	<path class="st1" d="M44.1,29.6l1.5-1.6c0.6,0.7,1.2,1,1.9,1c0.9,0,1.4-0.5,1.4-1.7v-6.8h2.4v6.9c0,1.2-0.4,2.2-1,2.8
		c-0.6,0.6-1.6,1-2.7,1C45.9,31.1,44.9,30.4,44.1,29.6z"/>
	<path class="st1" d="M53,27L53,27c0-2.3,1.9-4.2,4.4-4.2c2.5,0,4.3,1.8,4.3,4.2v0c0,2.3-1.9,4.2-4.4,4.2C54.9,31.2,53,29.3,53,27z
		 M59.5,27L59.5,27c0-1.2-0.9-2.2-2.1-2.2c-1.3,0-2.1,1-2.1,2.2v0c0,1.2,0.9,2.2,2.1,2.2C58.7,29.2,59.5,28.2,59.5,27z"/>
	<path class="st1" d="M65.6,29.9v1h-2.3V20h2.3v4.1c0.6-0.8,1.3-1.3,2.5-1.3c1.9,0,3.7,1.5,3.7,4.2v0c0,2.7-1.8,4.2-3.7,4.2
		C66.9,31.1,66.2,30.6,65.6,29.9z M69.5,27L69.5,27c0-1.4-0.9-2.2-2-2.2s-1.9,0.9-1.9,2.2v0c0,1.3,0.9,2.2,1.9,2.2
		S69.5,28.3,69.5,27z"/>
	<path class="st1" d="M72.9,29.9l1-1.5c0.9,0.6,1.8,1,2.5,1c0.7,0,1-0.2,1-0.6v0c0-0.5-0.8-0.7-1.7-0.9c-1.1-0.3-2.4-0.9-2.4-2.4v0
		c0-1.6,1.3-2.5,2.9-2.5c1,0,2.1,0.3,3,0.9l-0.9,1.6c-0.8-0.5-1.6-0.8-2.2-0.8c-0.6,0-0.8,0.2-0.8,0.6v0c0,0.5,0.8,0.7,1.6,1
		c1.1,0.4,2.4,0.9,2.4,2.4v0c0,1.8-1.3,2.6-3.1,2.6C75.2,31.1,73.9,30.8,72.9,29.9z"/>
</g>
<path class="st2" d="M23.1,13.1v10.4c0,0.8-0.6,1.4-1.4,1.4s-1.4-0.6-1.4-1.4h-7.6c0,5.8,4.7,10.4,10.4,10.4h0
	c5.8,0,10.4-4.7,10.4-10.4V13.1H23.1z"/>
</svg>
