<?xml version="1.0" encoding="utf-8"?>
<!-- Generator: Adobe Illustrator 26.3.1, SVG Export Plug-In . SVG Version: 6.00 Build 0)  -->
<svg version="1.1" id="Capa_1" xmlns="http://www.w3.org/2000/svg" xmlns:xlink="http://www.w3.org/1999/xlink" x="0px" y="0px"
	 viewBox="0 0 34.5 35" style="enable-background:new 0 0 34.5 35;" xml:space="preserve">
<style type="text/css">
	.st0{fill:#4AAEA1;}
	.st1{fill:#F29100;}
	.st2{fill:#C7BD6E;}
</style>
<circle class="st0" cx="12.7" cy="13.1" r="12.1"/>
<path class="st1" d="M23.1,13.1v10.4c0,0.8-0.6,1.4-1.4,1.4s-1.4-0.6-1.4-1.4h-7.6c0,5.8,4.7,10.4,10.4,10.4l0,0
	c5.8,0,10.4-4.7,10.4-10.4V13.1H23.1z"/>
<g>
	<path class="st2" d="M12.7,23.5c0,0.6,0.1,1.1,0.1,1.7c2.2,0,4.2-0.6,6-1.7H12.7z"/>
	<path class="st2" d="M23.1,19.3c1.1-1.8,1.7-3.9,1.7-6.2h-1.7V19.3z"/>
</g>
</svg>
